<svg width="200" height="200" viewBox="0 0 200 200" fill="none" xmlns="http://www.w3.org/2000/svg">
<path d="M90.9091 7.52134C94.2209 5.60924 95.8769 4.65319 97.6373 4.27899C99.195 3.94789 100.805 3.94789 102.363 4.27899C104.123 4.65319 105.779 5.60924 109.091 7.52134L175.543 45.8877C178.855 47.7998 180.511 48.7559 181.715 50.0934C182.781 51.2768 183.586 52.671 184.078 54.1856C184.634 55.8973 184.634 57.8094 184.634 61.6336V138.366C184.634 142.191 184.634 144.103 184.078 145.814C183.586 147.329 182.781 148.723 181.715 149.907C180.511 151.244 178.855 152.2 175.543 154.112L109.091 192.479C105.779 194.391 104.123 195.347 102.363 195.721C100.805 196.052 99.195 196.052 97.6373 195.721C95.8769 195.347 94.2209 194.391 90.9091 192.479L24.4566 154.112C21.1447 152.2 19.4888 151.244 18.2845 149.907C17.2189 148.723 16.414 147.329 15.9219 145.814C15.3657 144.103 15.3657 142.191 15.3657 138.366V61.6336C15.3657 57.8094 15.3657 55.8973 15.9219 54.1856C16.414 52.671 17.2189 51.2768 18.2845 50.0934C19.4888 48.7559 21.1447 47.7998 24.4566 45.8877L90.9091 7.52134Z" fill="#ECEFF0"/>
<path d="M36.967 99.752V95.384H50.071V97.988C50.071 99.92 50.743 100.592 52.759 100.592H68.551C70.567 100.592 71.239 99.92 71.239 97.988V95.468C71.239 93.536 70.567 93.032 68.551 92.78L47.971 90.764C41.167 90.176 37.807 86.816 37.807 80.684V75.476C37.807 69.008 41.587 65.312 47.971 65.312H73.507C79.891 65.312 83.671 69.092 83.671 75.56V79.424H70.567V77.324C70.567 75.392 69.895 74.72 67.879 74.72H54.103C52.087 74.72 51.415 75.392 51.415 77.324V78.332C51.415 80.264 52.087 80.768 54.103 81.02L74.683 83.036C81.487 83.624 84.847 86.984 84.847 93.116V99.836C84.847 106.304 81.067 110 74.683 110H47.131C40.747 110 36.967 106.22 36.967 99.752ZM91.4358 99.752V95.384H104.54V97.988C104.54 99.92 105.212 100.592 107.228 100.592H123.02C125.036 100.592 125.708 99.92 125.708 97.988V95.468C125.708 93.536 125.036 93.032 123.02 92.78L102.44 90.764C95.6358 90.176 92.2758 86.816 92.2758 80.684V75.476C92.2758 69.008 96.0558 65.312 102.44 65.312H127.976C134.36 65.312 138.14 69.092 138.14 75.56V79.424H125.036V77.324C125.036 75.392 124.364 74.72 122.348 74.72H108.572C106.556 74.72 105.884 75.392 105.884 77.324V78.332C105.884 80.264 106.556 80.768 108.572 81.02L129.152 83.036C135.956 83.624 139.316 86.984 139.316 93.116V99.836C139.316 106.304 135.536 110 129.152 110H101.6C95.2158 110 91.4358 106.22 91.4358 99.752Z" fill="black"/>
<path d="M162.005 61.112H148.145V51.2H162.005V61.112ZM162.005 110H148.145V65.312H162.005V110Z" fill="#FF4F20"/>
<path d="M65.9875 136.97L73.5475 125H77.8675V146H73.0675V133.34L67.2175 142.34H64.5175L58.6675 133.34V146H53.8675V125H58.3975L65.9875 136.97ZM86.3908 137.15V141.74H99.1708V146H81.2308V125H98.8708V129.26H86.3908V133.25H97.6708V137.15H86.3908ZM113.8 136.97L121.36 125H125.68V146H120.88V133.34L115.03 142.34H112.33L106.48 133.34V146H101.68V125H106.21L113.8 136.97ZM134.203 137.15V141.74H146.983V146H129.043V125H146.683V129.26H134.203V133.25H145.483V137.15H134.203Z" fill="#4C9641"/>
</svg>
