<svg width="666" height="100" viewBox="0 0 666 100" fill="none" xmlns="http://www.w3.org/2000/svg">
<path fill-rule="evenodd" clip-rule="evenodd" d="M44.6843 99.4746L86.0085 75.5017C86.328 75.3161 86.5932 75.05 86.7775 74.7297C86.9619 74.4093 87.0589 74.0462 87.0585 73.6767L86.9593 25.9019C86.9585 25.532 86.8602 25.169 86.6746 24.8492C86.489 24.5293 86.2225 24.2638 85.9021 24.0793L44.4788 0.282325C44.1585 0.0973703 43.7949 0 43.425 0C43.0555 0 42.692 0.0973703 42.3716 0.282325L1.04749 24.2576C0.727606 24.4426 0.462267 24.7088 0.27833 25.0293C0.0943915 25.3497 -0.0016199 25.7131 2.06774e-05 26.0826L0.0990703 73.8572C0.099303 74.2271 0.197227 74.5898 0.382911 74.9097C0.568593 75.2292 0.835449 75.4941 1.15644 75.6775L42.5797 99.4746C42.8996 99.6593 43.2623 99.7568 43.6318 99.7568C44.0017 99.7568 44.3644 99.6593 44.6843 99.4746ZM56.3602 42.5648L74.5335 31.8944C74.692 31.8008 74.8229 31.6673 74.9136 31.5072C75.0042 31.3472 75.0517 31.1663 75.0513 30.9823C75.0504 30.7983 75.0013 30.6177 74.9093 30.4584C74.8174 30.2992 74.6852 30.1668 74.5258 30.0744L44.5013 12.8271C44.1814 12.6422 43.8182 12.5447 43.4487 12.5447C43.0792 12.5447 42.7161 12.6422 42.3962 12.8271L11.9158 30.5053C11.5957 30.6907 11.33 30.9573 11.1457 31.2781C10.9614 31.5989 10.8648 31.9627 10.8659 32.3328L10.8932 42.4335C10.8934 42.803 10.9911 43.1657 11.1763 43.4852C11.3615 43.8047 11.6277 44.0699 11.9481 44.2534L31.6394 55.575C31.9606 55.7593 32.2275 56.025 32.4132 56.3458C32.5988 56.6661 32.6967 57.0297 32.6967 57.4V67.5305C32.6965 67.6538 32.664 67.7746 32.6024 67.8809C32.5408 67.9877 32.4523 68.0763 32.3458 68.1377C32.2393 68.1996 32.1184 68.2322 31.9953 68.2326C31.8722 68.2326 31.7512 68.2008 31.6443 68.1398L22.4351 62.8479C22.2218 62.7229 22.0453 62.5436 21.9236 62.3284C21.8019 62.1131 21.7391 61.8695 21.7417 61.622L21.7293 58.2991C21.7278 57.9263 21.6276 57.5606 21.4388 57.239C21.25 56.9174 20.9795 56.6517 20.6546 56.4691L12.4483 51.8657C12.2881 51.7758 12.1071 51.7292 11.9233 51.7309C11.7396 51.7326 11.5595 51.7826 11.401 51.8754C11.2425 51.9682 11.1111 52.1013 11.0198 52.2606C10.9286 52.4199 10.8806 52.6004 10.8808 52.7843V59.0962L10.9031 67.5801C10.9033 67.9496 11.0012 68.3127 11.1869 68.6322C11.3726 68.9521 11.6395 69.2169 11.9604 69.4L41.4974 86.3182C41.7111 86.4407 41.9533 86.5047 42.1997 86.5038C42.4458 86.5034 42.6877 86.4377 42.9008 86.314C43.114 86.1903 43.2907 86.0127 43.4131 85.7991C43.536 85.5856 43.6004 85.3436 43.5996 85.097L43.5504 51.0508C43.5496 50.6809 43.4513 50.3178 43.2657 49.9979C43.0801 49.678 42.8136 49.4127 42.4928 49.2284L22.9056 37.9687C22.7986 37.9074 22.7096 37.8189 22.6478 37.7121C22.5859 37.6053 22.5534 37.4842 22.5534 37.3608C22.5534 37.2375 22.5859 37.1163 22.6478 37.0095C22.7096 36.9028 22.7986 36.8143 22.9056 36.7529L42.4335 25.4561C42.7538 25.2712 43.1174 25.1738 43.4873 25.1738C43.8572 25.1738 44.2203 25.2712 44.5407 25.4561L53.3737 30.5375C53.4805 30.5988 53.5695 30.6873 53.6314 30.7941C53.6932 30.9008 53.7258 31.022 53.7258 31.1454C53.7258 31.2687 53.6932 31.3899 53.6314 31.4967C53.5695 31.6034 53.4805 31.6919 53.3737 31.7533L45.5881 36.2403C45.425 36.3346 45.2898 36.471 45.1975 36.6353C45.1047 36.7997 45.0581 36.9859 45.0619 37.1744C45.0661 37.363 45.1208 37.547 45.2203 37.7072C45.3199 37.8675 45.4606 37.998 45.628 38.0851L54.3246 42.6165C54.6403 42.7814 54.9928 42.8627 55.3492 42.8534C55.7051 42.8445 56.053 42.7449 56.3602 42.5648Z" fill="white"/>
<path d="M54.2725 56.5856L54.2898 68.5063C54.2903 68.7525 54.3555 68.9945 54.4788 69.208C54.6021 69.4212 54.7797 69.5983 54.9932 69.7212C55.2068 69.844 55.4492 69.9084 55.6954 69.9084C55.942 69.908 56.1839 69.8428 56.3971 69.7195L66.6983 63.7445C67.0178 63.558 67.2826 63.2915 67.4665 62.9707C67.6504 62.65 67.7466 62.2864 67.7458 61.9169L67.7212 50.0084C67.7208 49.7618 67.6555 49.5199 67.5322 49.3067C67.4089 49.0936 67.2314 48.9165 67.0178 48.7936C66.8043 48.6703 66.5619 48.6059 66.3157 48.6063C66.0691 48.6063 65.8271 48.6716 65.614 48.7949L55.3225 54.7601C55.0021 54.9453 54.7365 55.2114 54.5521 55.5317C54.3678 55.8521 54.2712 56.2157 54.2725 56.5856Z" fill="#FF4F20"/>
<path d="M350.523 50.4415V72.344C350.52 72.6606 350.393 72.9635 350.168 73.1864C349.944 73.4097 349.64 73.5347 349.323 73.5347H340.493C340.175 73.5347 339.87 73.4085 339.645 73.1835C339.42 72.9585 339.294 72.6538 339.294 72.3356V71.6025C339.293 71.536 339.274 71.4712 339.238 71.4148C339.203 71.3585 339.152 71.3131 339.093 71.2835C339.033 71.2542 338.966 71.2419 338.9 71.2483C338.834 71.2542 338.77 71.2788 338.717 71.3186C336.222 73.2508 332.883 74.6237 328.357 74.6237C320.192 74.6237 314.722 69.9034 314.722 62.7127C314.722 55.5898 320.192 50.9415 329.976 50.9415H338.586C338.778 50.9402 338.962 50.8635 339.097 50.728C339.233 50.5924 339.309 50.4089 339.311 50.2169C339.311 47.1661 337.192 45.1322 334.133 45.1322C331.073 45.1322 329.09 46.2127 328.273 48.6618C328.182 48.9449 327.992 49.1847 327.736 49.3364C327.481 49.4881 327.178 49.5402 326.887 49.4839L317.967 47.6873C317.836 47.661 317.712 47.6076 317.602 47.5305C317.492 47.4534 317.4 47.3542 317.331 47.2394C317.262 47.1241 317.217 46.9962 317.201 46.8631C317.184 46.7301 317.196 46.5953 317.234 46.4669C319.205 40.0135 325.412 36.0051 333.734 36.0051C344.035 35.9839 350.523 41.1407 350.523 50.4415ZM339.294 59.1576V58.7339C339.294 58.6385 339.256 58.5466 339.188 58.4792C339.121 58.4114 339.029 58.3737 338.934 58.3737H331.273C328.357 58.3737 326.535 59.8991 326.535 62.1491C326.535 64.4754 328.573 65.9288 331.62 65.9288C335.65 65.9076 339.294 63.2296 339.294 59.1576Z" fill="white"/>
<path d="M362.036 61.1195C362.036 63.0093 363.421 64.3187 365.536 64.3187C366.635 64.2424 367.717 64.0127 368.752 63.6365C368.88 63.5962 369.016 63.5839 369.15 63.5996C369.284 63.6153 369.413 63.6589 369.528 63.7276C369.644 63.7962 369.744 63.8886 369.822 63.9983C369.9 64.1081 369.954 64.2331 369.981 64.3653L371.404 71.4712C371.457 71.7331 371.42 72.0051 371.3 72.2437C371.181 72.4822 370.985 72.6742 370.743 72.789C368.35 74.0377 365.684 74.6712 362.985 74.6322C355.4 74.6322 350.371 69.5475 350.371 61.9924V18.8059C350.371 18.4879 350.497 18.1829 350.722 17.9579C350.946 17.7331 351.252 17.6068 351.57 17.6068H360.837C361.154 17.6068 361.46 17.7331 361.685 17.9579C361.91 18.1829 362.036 18.4879 362.036 18.8059V61.1195Z" fill="white"/>
<path d="M405.485 73.5348H396.223C395.904 73.5348 395.599 73.4085 395.375 73.1835C395.15 72.9585 395.023 72.6539 395.023 72.3357V70.9077C395.024 70.8373 395.005 70.7687 394.967 70.7098C394.929 70.6509 394.874 70.6043 394.81 70.5763C394.745 70.5479 394.674 70.5399 394.605 70.5518C394.536 70.564 394.473 70.5967 394.422 70.645C391.701 73.1874 388.066 74.6238 383.795 74.6238C375.261 74.6238 369.574 68.5941 369.574 59.4416V38.2551C369.574 37.9367 369.7 37.6313 369.925 37.4057C370.15 37.1801 370.455 37.0529 370.773 37.0518H379.968C380.287 37.0529 380.592 37.1801 380.817 37.4057C381.041 37.6313 381.167 37.9367 381.167 38.2551V56.9585C381.167 61.2467 383.71 64.1619 387.439 64.1619C392.032 64.1619 395.023 61.039 395.023 53.9924V38.2763C395.023 38.1185 395.053 37.9621 395.113 37.8161C395.173 37.6701 395.262 37.5375 395.373 37.4257C395.484 37.3139 395.617 37.2251 395.763 37.1646C395.909 37.1041 396.064 37.0729 396.223 37.0729H405.485C405.804 37.0729 406.11 37.1997 406.336 37.4254C406.562 37.6511 406.689 37.9572 406.689 38.2763V72.3441C406.685 72.6611 406.557 72.964 406.332 73.1869C406.106 73.4098 405.802 73.5348 405.485 73.5348Z" fill="white"/>
<path d="M442.616 58.2806H418.328C418.277 58.281 418.222 58.2928 418.175 58.3153C418.128 58.3378 418.086 58.3704 418.052 58.4106C418.018 58.4509 417.997 58.4984 417.98 58.5488C417.967 58.5996 417.967 58.6526 417.976 58.7043C418.989 62.8017 421.811 65.3102 425.489 65.3102C427.912 65.3102 430.7 64.7424 432.611 61.806C432.743 61.5979 432.938 61.4352 433.162 61.3399C433.391 61.2441 433.641 61.2208 433.883 61.2721L441.599 62.9416C441.777 62.9772 441.942 63.0526 442.086 63.1619C442.23 63.2712 442.345 63.4119 442.429 63.5729C442.51 63.7339 442.552 63.9115 442.556 64.092C442.561 64.2725 442.523 64.4513 442.446 64.6153C439.217 71.395 433.095 74.6492 425.497 74.6492C415.273 74.6492 406.814 66.878 406.814 55.3272C406.814 43.8484 415.289 36.0009 425.565 36.0009C435.578 36.0009 443.612 43.4119 443.823 55.3272V57.1026C443.815 57.4178 443.688 57.7183 443.459 57.9386C443.234 58.1589 442.929 58.2818 442.616 58.2806ZM418.578 51.1619H432.196C432.251 51.1619 432.306 51.1484 432.357 51.1229C432.408 51.0975 432.45 51.0606 432.484 51.0153C432.518 50.97 432.539 50.9174 432.548 50.8619C432.561 50.8064 432.556 50.7496 432.539 50.6958C431.391 47.0941 428.671 45.4204 425.556 45.4204C423.942 45.4272 422.37 45.9365 421.061 46.8772C419.747 47.8178 418.76 49.1437 418.239 50.6704C418.217 50.7259 418.209 50.7852 418.217 50.8441C418.222 50.903 418.243 50.9594 418.277 51.0085C418.311 51.0577 418.357 51.0979 418.408 51.1263C418.459 51.1543 418.518 51.1695 418.578 51.1704V51.1619Z" fill="white"/>
<path d="M262.017 66.6787C267.625 66.6787 272.17 61.6211 272.17 55.3821C272.17 49.1431 267.625 44.0855 262.017 44.0855C256.41 44.0855 251.865 49.1431 251.865 55.3821C251.865 61.6211 256.41 66.6787 262.017 66.6787Z" fill="#FF4F20"/>
<path d="M159.373 38.789L149.915 40.7128C149.68 40.7576 149.436 40.7123 149.233 40.586C149.03 40.4596 148.881 40.2613 148.818 40.0306C147.673 36.1323 144.207 34.2128 140.678 34.2128C136.754 34.2128 134.258 36.3314 134.258 39.0433C134.258 40.9628 135.106 42.3823 138.11 43.0221L148.025 45.2255C156.296 47.073 161.161 51.5518 161.161 59.0815C161.161 69.251 152.101 74.501 141.474 74.501C131.169 74.501 122.627 69.8187 120.788 61.2552C120.756 61.1022 120.754 60.9442 120.784 60.7904C120.814 60.637 120.874 60.4908 120.961 60.3607C121.048 60.2302 121.159 60.1187 121.29 60.0323C121.42 59.9459 121.566 59.8861 121.72 59.8569L131.851 57.8993C132.079 57.8543 132.316 57.895 132.515 58.0141C132.715 58.1332 132.863 58.3213 132.932 58.5433C134.309 62.8738 137.593 64.7679 142.118 64.7679C146.538 64.7679 149.178 62.7764 149.178 59.8654C149.178 57.7467 148.178 56.3823 144.758 55.6704L134.771 53.5518C127.923 51.9882 121.936 48.4374 121.936 39.7679C121.936 30.5306 129.635 24.7721 140.834 24.7721C150.745 24.7721 158.076 29.4331 160.292 37.3357C160.333 37.4917 160.341 37.6544 160.316 37.8137C160.291 37.973 160.234 38.1255 160.148 38.2617C160.061 38.398 159.948 38.5151 159.815 38.6058C159.681 38.6965 159.531 38.7589 159.373 38.789Z" fill="white"/>
<path d="M201.151 55.3143C201.151 66.8016 192.011 74.4626 181.206 74.4626C170.189 74.4626 161.041 66.8016 161.041 55.3143C161.041 43.8737 170.181 36.2465 181.206 36.2465C192.011 36.2169 201.151 43.8737 201.151 55.3143ZM189.982 55.3143C189.982 49.6745 185.702 45.916 181.206 45.916C176.49 45.916 172.211 49.6745 172.211 55.3143C172.211 61.022 176.49 64.7084 181.206 64.7084C185.702 64.6915 189.982 61.005 189.982 55.3143Z" fill="white"/>
<path d="M239.457 38.789L229.999 40.7128C229.764 40.7576 229.52 40.7123 229.317 40.586C229.114 40.4596 228.965 40.2613 228.901 40.0306C227.757 36.1323 224.291 34.2128 220.762 34.2128C216.838 34.2128 214.342 36.3314 214.342 39.0433C214.342 40.9628 215.19 42.3823 218.194 43.0221L228.109 45.2255C236.38 47.073 241.245 51.5518 241.245 59.0815C241.245 69.251 232.185 74.501 221.558 74.501C211.253 74.501 202.711 69.8187 200.872 61.2552C200.84 61.1022 200.838 60.9442 200.868 60.7904C200.898 60.637 200.958 60.4908 201.045 60.3607C201.132 60.2302 201.243 60.1187 201.374 60.0323C201.504 59.9459 201.65 59.8861 201.804 59.8569L211.935 57.8993C212.163 57.8543 212.4 57.895 212.599 58.0141C212.799 58.1332 212.947 58.3213 213.016 58.5433C214.393 62.8738 217.677 64.7679 222.202 64.7679C226.622 64.7679 229.262 62.7764 229.262 59.8654C229.262 57.7467 228.262 56.3823 224.842 55.6704L214.855 53.5518C208.007 51.9882 202.02 48.4374 202.02 39.7679C202.02 30.5306 209.719 24.7721 220.918 24.7721C230.829 24.7721 238.16 29.4331 240.376 37.3357C240.417 37.4917 240.425 37.6544 240.4 37.8137C240.375 37.973 240.318 38.1255 240.232 38.2617C240.145 38.398 240.032 38.5151 239.899 38.6058C239.765 38.6965 239.615 38.7589 239.457 38.789Z" fill="white"/>
<path d="M281.237 55.3143C281.237 66.8016 272.097 74.4626 261.292 74.4626C250.275 74.4626 241.127 66.8016 241.127 55.3143C241.127 43.8737 250.267 36.2465 261.292 36.2465C272.097 36.2169 281.237 43.8737 281.237 55.3143ZM270.068 55.3143C270.068 49.6745 265.788 45.916 261.292 45.916C256.576 45.916 252.296 49.6745 252.296 55.3143C252.296 61.022 256.576 64.7084 261.292 64.7084C265.788 64.6915 270.068 61.005 270.068 55.3143Z" fill="white"/>
<path d="M303.984 74.6025H294.357C294.028 74.6008 293.707 74.5034 293.432 74.322C293.157 74.1406 292.941 73.8834 292.811 73.5813L272.556 26.1237C272.494 25.9773 272.469 25.8178 272.483 25.6594C272.498 25.501 272.551 25.3486 272.639 25.2159C272.727 25.0833 272.846 24.9744 272.986 24.8992C273.126 24.8239 273.283 24.7846 273.442 24.7847H284.433C284.766 24.7865 285.091 24.8863 285.368 25.0717C285.644 25.257 285.861 25.5198 285.989 25.827L298.806 57.0093C298.833 57.075 298.88 57.1313 298.939 57.1707C298.998 57.2101 299.068 57.2313 299.139 57.2313C299.21 57.2313 299.28 57.2101 299.339 57.1707C299.398 57.1313 299.444 57.075 299.472 57.0093L312.361 25.8525C312.49 25.5467 312.705 25.2853 312.981 25.1008C313.257 24.9162 313.58 24.8166 313.912 24.8144H324.929C325.088 24.8149 325.244 24.8548 325.383 24.9303C325.523 25.0059 325.642 25.1148 325.729 25.2474C325.816 25.3799 325.869 25.532 325.884 25.6901C325.898 25.8482 325.873 26.0073 325.811 26.1533L305.561 73.611C305.423 73.9123 305.201 74.1665 304.921 74.3428C304.641 74.5186 304.315 74.6093 303.984 74.6025Z" fill="white"/>
<path d="M479.426 29.5455V75H468.44V29.5455H479.426ZM503.008 42.6875C506.675 42.6875 509.612 43.8958 511.821 46.3125C514.071 48.6875 515.196 51.8333 515.196 55.75V75H505.258V57.875C505.258 56.0417 504.758 54.5625 503.758 53.4375C502.758 52.2708 501.467 51.6875 499.883 51.6875C497.842 51.6875 496.237 52.4167 495.071 53.875C493.946 55.2917 493.383 57.4792 493.383 60.4375V75H483.383V43.625H493.383V46.625C495.883 44 499.092 42.6875 503.008 42.6875ZM551.894 26.875V75H541.894V72.5C539.352 74.7917 536.102 75.9375 532.144 75.9375C527.894 75.9375 524.269 74.3958 521.269 71.3125C518.31 68.1875 516.831 64.1875 516.831 59.3125C516.831 54.4792 518.31 50.5 521.269 47.375C524.269 44.25 527.894 42.6875 532.144 42.6875C536.102 42.6875 539.352 43.8333 541.894 46.125V26.875H551.894ZM534.206 67.4375C536.289 67.4375 538.081 66.6875 539.581 65.1875C541.123 63.6458 541.894 61.6875 541.894 59.3125C541.894 56.9792 541.123 55.0417 539.581 53.5C538.081 51.9583 536.289 51.1875 534.206 51.1875C531.998 51.1875 530.185 51.9583 528.769 53.5C527.352 55 526.644 56.9375 526.644 59.3125C526.644 61.7292 527.352 63.6875 528.769 65.1875C530.185 66.6875 531.998 67.4375 534.206 67.4375ZM557.366 30.375C558.449 29.25 559.824 28.6875 561.491 28.6875C563.157 28.6875 564.532 29.25 565.616 30.375C566.741 31.5 567.303 32.8333 567.303 34.375C567.303 35.9583 566.741 37.2917 565.616 38.375C564.532 39.4167 563.157 39.9375 561.491 39.9375C559.824 39.9375 558.449 39.4167 557.366 38.375C556.282 37.2917 555.741 35.9583 555.741 34.375C555.741 32.7917 556.282 31.4583 557.366 30.375ZM566.491 75H556.491V43.625H566.491V75ZM586.178 67.1875C589.678 67.1875 591.949 65.3542 592.99 61.6875L602.178 63.6875C601.386 67.3542 599.511 70.3125 596.553 72.5625C593.594 74.8125 590.136 75.9375 586.178 75.9375C581.386 75.9375 577.324 74.3958 573.99 71.3125C570.699 68.1875 569.053 64.1875 569.053 59.3125C569.053 54.4792 570.699 50.5 573.99 47.375C577.324 44.25 581.386 42.6875 586.178 42.6875C590.053 42.6875 593.469 43.7917 596.428 46C599.386 48.2083 601.303 51.125 602.178 54.75L592.803 57C592.386 55.1667 591.594 53.7917 590.428 52.875C589.261 51.9167 587.844 51.4375 586.178 51.4375C583.928 51.4375 582.115 52.1875 580.74 53.6875C579.365 55.1458 578.678 57.0208 578.678 59.3125C578.678 61.6458 579.365 63.5417 580.74 65C582.115 66.4583 583.928 67.1875 586.178 67.1875ZM634.995 59.3125V61.875H611.995C612.412 63.75 613.224 65.2292 614.433 66.3125C615.641 67.3958 617.078 67.9375 618.745 67.9375C621.87 67.9375 624.099 66.7292 625.433 64.3125L634.308 66.125C632.974 69.375 630.953 71.8333 628.245 73.5C625.578 75.125 622.412 75.9375 618.745 75.9375C614.12 75.9375 610.203 74.3958 606.995 71.3125C603.787 68.1875 602.183 64.1875 602.183 59.3125C602.183 54.4792 603.787 50.5 606.995 47.375C610.203 44.25 614.141 42.6875 618.808 42.6875C623.349 42.6875 627.162 44.2083 630.245 47.25C633.328 50.2917 634.912 54.3125 634.995 59.3125ZM618.808 50.8125C617.349 50.8125 615.995 51.25 614.745 52.125C613.495 53 612.641 54.2083 612.183 55.75H625.12C624.662 54.125 623.87 52.8958 622.745 52.0625C621.62 51.2292 620.308 50.8125 618.808 50.8125ZM634.945 66.8125L644.695 64.8125C645.111 67.2708 646.966 68.5 650.257 68.5C651.507 68.5 652.486 68.2708 653.195 67.8125C653.945 67.3125 654.32 66.7083 654.32 66C654.32 64.8333 653.278 64.0625 651.195 63.6875L644.82 62.4375C638.736 61.3125 635.695 58.2708 635.695 53.3125C635.695 50.1042 636.945 47.5417 639.445 45.625C641.945 43.6667 645.195 42.6875 649.195 42.6875C653.028 42.6875 656.195 43.5 658.695 45.125C661.236 46.75 662.82 48.9375 663.445 51.6875L654.32 53.5C654.153 52.4583 653.591 51.5833 652.632 50.875C651.716 50.1667 650.528 49.8125 649.07 49.8125C647.82 49.8125 646.903 50.0625 646.32 50.5625C645.778 51.0208 645.507 51.5833 645.507 52.25C645.507 53.375 646.299 54.1042 647.882 54.4375L655.257 55.9375C658.132 56.5625 660.299 57.7083 661.757 59.375C663.216 61 663.945 63 663.945 65.375C663.945 68.75 662.632 71.3542 660.007 73.1875C657.382 75.0208 653.945 75.9375 649.695 75.9375C645.736 75.9375 642.403 75.1875 639.695 73.6875C637.028 72.1458 635.445 69.8542 634.945 66.8125Z" fill="#FF4F20"/>
</svg>
