<svg width="20" height="20" viewBox="0 0 20 20" fill="none" xmlns="http://www.w3.org/2000/svg">
<path d="M17.2789 6.09184C17.2787 6.03168 17.2627 5.97263 17.2324 5.92064C17.2022 5.86866 17.1588 5.82558 17.1066 5.79576L10.3648 1.92104C10.3127 1.89088 10.2535 1.875 10.1932 1.875C10.1329 1.875 10.0737 1.89088 10.0216 1.92104L3.29592 5.82646C3.24387 5.85671 3.20068 5.90012 3.17068 5.95235C3.14068 6.00457 3.12493 6.06377 3.125 6.12401L3.14107 13.9071C3.14135 13.9673 3.15741 14.0264 3.18766 14.0785C3.21791 14.1306 3.26128 14.1738 3.31345 14.2039L10.0552 18.0786C10.1073 18.109 10.1665 18.125 10.2268 18.125C10.2871 18.125 10.3463 18.109 10.3984 18.0786L17.1241 14.1732C17.1761 14.1429 17.2193 14.0995 17.2493 14.0473C17.2793 13.9951 17.2951 13.9359 17.295 13.8756L17.2789 6.09184ZM15.2564 7.0693L12.2975 8.80707C12.2474 8.83635 12.1907 8.85244 12.1327 8.85384C12.0748 8.85525 12.0174 8.84192 11.9659 8.81511L10.5518 8.07819C10.5245 8.06408 10.5015 8.04286 10.4852 8.01676C10.469 7.99067 10.46 7.96066 10.4593 7.9299C10.4587 7.89915 10.4663 7.86878 10.4814 7.84199C10.4965 7.81521 10.5186 7.793 10.5453 7.77771L11.8125 7.04663C11.8298 7.03651 11.8441 7.02205 11.8541 7.00467C11.864 6.98729 11.8693 6.96761 11.8693 6.94757C11.8693 6.92754 11.864 6.90785 11.8541 6.89048C11.8441 6.8731 11.8298 6.85863 11.8125 6.84851L10.3751 6.01874C10.3229 5.98858 10.2637 5.9727 10.2034 5.9727C10.1432 5.9727 10.084 5.98858 10.0318 6.01874L6.8501 7.86106C6.83264 7.87103 6.81813 7.88544 6.80803 7.90284C6.79794 7.92024 6.79262 7.94 6.79262 7.96012C6.79262 7.98024 6.79794 8 6.80803 8.0174C6.81813 8.0348 6.83264 8.04921 6.8501 8.05918L10.042 9.89346C10.0941 9.92349 10.1374 9.96674 10.1676 10.0188C10.1977 10.0709 10.2136 10.1301 10.2137 10.1903L10.2224 15.737C10.2223 15.7757 10.2124 15.8138 10.1936 15.8477C10.1747 15.8816 10.1477 15.9102 10.1149 15.9307C10.082 15.9513 10.0446 15.9633 10.0059 15.9654C9.96722 15.9676 9.92864 15.9599 9.89373 15.9431L5.08031 13.1745C5.02805 13.1446 4.9846 13.1014 4.95434 13.0493C4.92407 12.9972 4.90807 12.938 4.90794 12.8777L4.90282 10.4783C4.90172 10.4449 4.9104 10.4119 4.92778 10.3833C4.94517 10.3547 4.97051 10.3318 5.0007 10.3175C5.02469 10.3071 5.05077 10.3024 5.07688 10.3038C5.10299 10.3052 5.12842 10.3126 5.15116 10.3255L6.4849 11.0727C6.53772 11.1026 6.58173 11.1459 6.61251 11.1983C6.64328 11.2507 6.65973 11.3102 6.6602 11.371V11.9127C6.66037 11.9528 6.67105 11.9921 6.69118 12.0267C6.7113 12.0614 6.74016 12.0901 6.77487 12.1101L8.27368 12.972C8.29105 12.9821 8.31076 12.9873 8.33081 12.9873C8.35087 12.9873 8.37056 12.982 8.38791 12.9719C8.40525 12.9618 8.41962 12.9473 8.42957 12.9299C8.43953 12.9124 8.44471 12.8927 8.44459 12.8726V11.2255C8.44466 11.1652 8.42883 11.1059 8.39869 11.0536C8.36856 11.0014 8.32518 10.958 8.27295 10.9279L5.0679 9.08342C5.01636 9.05381 4.97342 9.01127 4.94332 8.95999C4.91322 8.90871 4.897 8.85046 4.89625 8.79099V7.14387C4.89582 7.0759 4.91593 7.00938 4.95395 6.95306L4.97367 6.92674L4.99632 6.90261C5.01773 6.88052 5.04235 6.86178 5.06936 6.84705L10.0289 3.96806C10.0809 3.93789 10.14 3.92201 10.2001 3.92201C10.2603 3.92201 10.3194 3.93789 10.3714 3.96806L15.2579 6.77833C15.2827 6.79375 15.3032 6.81529 15.3174 6.8409C15.3315 6.8665 15.3389 6.89532 15.3387 6.92459C15.3386 6.95386 15.331 6.98259 15.3165 7.00806C15.3021 7.03352 15.2814 7.05486 15.2564 7.07003V7.0693Z" fill="white"/>
<path d="M11.9587 11.0917L11.963 13.0371C11.9631 13.0772 11.9738 13.1167 11.9939 13.1514C12.0141 13.1861 12.043 13.2149 12.0778 13.2349C12.1126 13.2549 12.152 13.2654 12.1921 13.2653C12.2322 13.2653 12.2716 13.2546 12.3063 13.2345L13.9826 12.2607C14.0347 12.2304 14.0779 12.187 14.1079 12.1348C14.1379 12.0826 14.1536 12.0234 14.1535 11.9631L14.1492 10.0228C14.1491 9.98268 14.1384 9.94326 14.1183 9.90853C14.0981 9.8738 14.0692 9.84499 14.0344 9.82498C13.9996 9.80498 13.9602 9.79449 13.9201 9.79457C13.88 9.79465 13.8406 9.8053 13.8059 9.82544L12.131 10.797C12.0791 10.8269 12.0359 10.8697 12.0057 10.9214C11.9755 10.9731 11.9592 11.0318 11.9587 11.0917Z" fill="#FF4E1F"/>
</svg>
