<svg width="20" height="20" viewBox="0 0 20 20" fill="none" xmlns="http://www.w3.org/2000/svg">
<path fill-rule="evenodd" clip-rule="evenodd" d="M10.398 18.079L17.1241 14.1741C17.1762 14.1439 17.2194 14.1005 17.2494 14.0482C17.2794 13.9959 17.2951 13.9367 17.295 13.8764L17.2789 6.09451C17.2787 6.03427 17.2627 5.97513 17.2325 5.92303C17.2023 5.87093 17.1589 5.82768 17.1068 5.79764L10.3646 1.92099C10.3124 1.89086 10.2533 1.875 10.1931 1.875C10.1329 1.875 10.0737 1.89086 10.0216 1.92099L3.29549 5.82628C3.24343 5.8564 3.20024 5.89977 3.1703 5.95197C3.14036 6.00417 3.12474 6.06336 3.125 6.12355L3.14113 13.9055C3.14116 13.9657 3.1571 14.0248 3.18732 14.0769C3.21754 14.129 3.26098 14.1721 3.31322 14.202L10.0554 18.079C10.1075 18.1091 10.1666 18.125 10.2267 18.125C10.2869 18.125 10.346 18.1091 10.398 18.079ZM15.2564 7.07099L12.2984 8.80905C12.2484 8.83843 12.1918 8.85462 12.1338 8.8561C12.0759 8.85759 12.0185 8.84431 11.9671 8.81752L10.5516 8.07938C10.5244 8.06518 10.5014 8.04392 10.4852 8.01783C10.469 7.99173 10.4601 7.96176 10.4595 7.93104C10.4588 7.90033 10.4664 7.87 10.4815 7.84323C10.4966 7.81646 10.5185 7.79424 10.5451 7.77888L11.8123 7.048C11.8297 7.03801 11.8442 7.02359 11.8543 7.0062C11.8643 6.98881 11.8696 6.96907 11.8696 6.94898C11.8696 6.92888 11.8643 6.90915 11.8543 6.89176C11.8442 6.87437 11.8297 6.85995 11.8123 6.84995L10.3746 6.02227C10.3225 5.99214 10.2634 5.97628 10.2031 5.97628C10.1429 5.97628 10.0838 5.99214 10.0316 6.02227L6.8532 7.86359C6.83578 7.87358 6.82131 7.888 6.81124 7.90539C6.80118 7.92278 6.79588 7.94252 6.79588 7.96261C6.79588 7.98271 6.80118 8.00244 6.81124 8.01983C6.82131 8.03722 6.83578 8.05164 6.8532 8.06164L10.0413 9.89448C10.0935 9.9245 10.1369 9.96773 10.1671 10.0198C10.1973 10.072 10.2133 10.1311 10.2134 10.1914L10.2215 15.7371C10.2216 15.7772 10.2111 15.8166 10.1911 15.8514C10.1711 15.8862 10.1424 15.9152 10.1077 15.9353C10.073 15.9555 10.0337 15.9661 9.99358 15.9662C9.95349 15.9663 9.91407 15.9559 9.87929 15.9359L5.07172 13.1802C5.01947 13.1504 4.97604 13.1072 4.94582 13.0552C4.91559 13.0031 4.89966 12.944 4.89962 12.8837L4.89599 10.4737C4.89597 10.4438 4.90377 10.4144 4.91862 10.3884C4.93348 10.3624 4.95488 10.3408 4.98068 10.3257C5.00648 10.3105 5.03578 10.3024 5.06568 10.3021C5.09559 10.3018 5.12505 10.3094 5.15113 10.3241L6.48683 11.0739C6.5397 11.1037 6.58374 11.147 6.61447 11.1993C6.64519 11.2517 6.66151 11.3113 6.66175 11.372V11.9133C6.66153 11.9538 6.67205 11.9936 6.69223 12.0286C6.71241 12.0637 6.74153 12.0928 6.77662 12.1129L8.27556 12.9749C8.29295 12.9849 8.31265 12.9901 8.33268 12.99C8.35272 12.99 8.37239 12.9847 8.38973 12.9746C8.40707 12.9646 8.42147 12.9501 8.4315 12.9328C8.44152 12.9154 8.44682 12.8957 8.44685 12.8757V11.2256C8.44683 11.1652 8.43092 11.106 8.4007 11.0538C8.37048 11.0016 8.32704 10.9583 8.27476 10.9283L5.06971 9.08414C5.01756 9.0542 4.97423 9.01103 4.94409 8.95898C4.91394 8.90692 4.89805 8.84784 4.89801 8.78767L4.89358 7.14239C4.8934 7.08212 4.90911 7.02286 4.93911 6.9706C4.96911 6.91834 5.01235 6.87492 5.06447 6.84471L10.022 3.96556C10.074 3.93543 10.1331 3.91956 10.1933 3.91956C10.2534 3.91956 10.3125 3.93543 10.3646 3.96556L15.2515 6.77493C15.2775 6.78969 15.2992 6.81098 15.3145 6.8367C15.3297 6.86242 15.338 6.89168 15.3385 6.92158C15.339 6.95148 15.3317 6.981 15.3173 7.0072C15.3029 7.03341 15.2819 7.05539 15.2564 7.07099ZM11.9586 11.0929L11.9614 13.0346C11.9615 13.0748 11.9721 13.1142 11.9922 13.1489C12.0123 13.1837 12.0412 13.2125 12.0759 13.2325C12.1107 13.2526 12.1501 13.2631 12.1902 13.263C12.2303 13.263 12.2697 13.2524 12.3044 13.2323L13.9811 12.259C14.0331 12.2287 14.0762 12.1852 14.1061 12.133C14.1361 12.0807 14.1517 12.0215 14.1516 11.9613L14.1476 10.0216C14.1475 9.98142 14.1369 9.942 14.1168 9.90727C14.0967 9.87253 14.0679 9.8437 14.0331 9.82367C13.9983 9.80364 13.9589 9.79312 13.9188 9.79316C13.8787 9.79321 13.8393 9.80381 13.8046 9.82392L12.1295 10.7956C12.0774 10.8257 12.0342 10.8691 12.0042 10.9213C11.9741 10.9735 11.9584 11.0327 11.9586 11.0929Z" fill="#A3A3A3"/>
</svg>
