<svg width="16" height="16" viewBox="0 0 16 16" fill="none" xmlns="http://www.w3.org/2000/svg">
<path fill-rule="evenodd" clip-rule="evenodd" d="M15.3327 7.99984C15.3327 12.0499 12.0494 15.3332 7.99935 15.3332C3.94926 15.3332 0.666016 12.0499 0.666016 7.99984C0.666016 3.94975 3.94926 0.666504 7.99935 0.666504C12.0494 0.666504 15.3327 3.94975 15.3327 7.99984ZM8.26221 6.0803C7.54893 6.37698 6.12339 6.99102 3.98557 7.92243C3.63842 8.06048 3.45657 8.19553 3.44002 8.32759C3.41204 8.55076 3.69152 8.63864 4.07209 8.75831C4.12386 8.77459 4.1775 8.79145 4.23249 8.80933C4.60691 8.93104 5.11059 9.07343 5.37242 9.07909C5.60994 9.08422 5.87503 8.9863 6.16769 8.78533C8.16512 7.43701 9.1962 6.75551 9.26094 6.74082C9.3066 6.73045 9.36989 6.71742 9.41277 6.75553C9.45565 6.79364 9.45143 6.86582 9.44689 6.88518C9.41921 7.00321 8.32216 8.02313 7.75443 8.55093C7.57745 8.71548 7.4519 8.83219 7.42624 8.85885C7.36875 8.91856 7.31016 8.97504 7.25385 9.02933C6.90599 9.36466 6.64514 9.61613 7.26829 10.0268C7.56775 10.2241 7.80737 10.3873 8.04643 10.5501C8.30751 10.7279 8.56792 10.9052 8.90484 11.1261C8.99068 11.1824 9.07266 11.2408 9.15251 11.2977C9.45635 11.5143 9.72932 11.7089 10.0665 11.6779C10.2625 11.6599 10.4649 11.4756 10.5677 10.9261C10.8107 9.62732 11.2882 6.81335 11.3985 5.65378C11.4082 5.55218 11.3961 5.42216 11.3863 5.36509C11.3765 5.30801 11.3561 5.22669 11.2819 5.16649C11.1941 5.0952 11.0584 5.08016 10.9977 5.08123C10.7219 5.08609 10.2988 5.23323 8.26221 6.0803Z" fill="#A3A3A3"/>
</svg>
